:FULLY-SPECIFIED
:FORCE-ALL-JOINTS-BE-3DOF
:DEGREES
421
root 10.1078 17.0232 23.1186 7.36702 -2.00888 -3.68536
lfemur -38.4848 0.561133 -17.4168
ltibia 27.0952 0 0
lfoot -10.2428 10.051 0
ltoes -2.98691 0 0
rfemur 6.9442 2.64068 25.9462
rtibia 27.9381 0 0
rfoot 6.43247 2.46945 0
rtoes -13.8162 0 0
lowerback -6.70189 2.86614 0.653589
upperback -2.05436 3.61966 2.38238
thorax 1.53108 1.84198 2.39865
lowerneck -18.1126 -5.79899 -14.1407
upperneck 21.9394 -7.42321 13.2784
head 11.1552 -3.05745 6.13979
lclavicle 1.66418e-014 -9.26592e-015 0
lhumerus -47.8267 -5.78062 92.036
lradius 22.7995 0 0
lwrist 0.655413 0 0
lhand -10.4688 -24.6197 0
lfingers 7.12502 0 0
lthumb 15.5322 4.77646 0
rclavicle 1.66418e-014 -9.26592e-015 0
rhumerus -36.6413 11.9208 -87.7944
rradius 33.7978 0 0
rwrist -15.205 0 0
rhand -28.4245 -24.267 0
rfingers 7.12502 0 0
rthumb -1.79587 -54.2331 0
422
root 10.1329 17.0316 23.2764 7.41575 -2.03248 -3.45005
lfemur -38.213 0.799175 -17.9303
ltibia 27.4504 0 0
lfoot -9.89975 9.84643 0
ltoes -2.42761 0 0
rfemur 6.31945 2.4488 25.5151
rtibia 29.5815 0 0
rfoot 7.26767 2.20595 0
rtoes -14.0247 0 0
lowerback -6.6141 2.8427 0.494552
upperback -2.19075 3.60753 2.28014
thorax 1.33828 1.83706 2.37034
lowerneck -18.0419 -5.77953 -14.1845
upperneck 21.982 -7.39931 13.2905
head 11.1556 -3.05168 6.15827
lclavicle 1.67949e-014 -8.2207e-015 0
lhumerus -47.4951 -5.57527 91.781
lradius 22.5464 0 0
lwrist 0.209615 0 0
lhand -10.4751 -24.523 0
lfingers 7.12502 0 0
lthumb 15.5261 4.87371 0
rclavicle 1.67949e-014 -8.2207e-015 0
rhumerus -37.2078 11.7356 -87.9686
rradius 33.4628 0 0
rwrist -15.0475 0 0
rhand -28.3165 -24.4568 0
rfingers 7.12502 0 0
rthumb -1.69158 -54.4239 0
423
root 10.1579 17.0401 23.4342 7.46448 -2.05608 -3.21474
lfemur -37.9412 1.03722 -18.4437
ltibia 27.8056 0 0
lfoot -9.55667 9.6419 0
ltoes -1.8683 0 0
rfemur 5.69469 2.25693 25.0839
rtibia 31.2249 0 0
rfoot 8.10287 1.94244 0
rtoes -14.2332 0 0
lowerback -6.52631 2.81927 0.335515
upperback -2.32714 3.5954 2.17791
thorax 1.14549 1.83214 2.34203
lowerneck -17.9711 -5.76008 -14.2283
upperneck 22.0245 -7.37542 13.3025
head 11.156 -3.04591 6.17675
lclavicle 1.6948e-014 -7.17548e-015 0
lhumerus -47.1635 -5.36992 91.526
lradius 22.2933 0 0
lwrist -0.236183 0 0
lhand -10.4814 -24.4262 0
lfingers 7.12502 0 0
lthumb 15.52 4.97095 0
rclavicle 1.6948e-014 -7.17548e-015 0
rhumerus -37.7742 11.5505 -88.1429
rradius 33.1279 0 0
rwrist -14.8899 0 0
rhand -28.2086 -24.6467 0
rfingers 7.12502 0 0
rthumb -1.5873 -54.6147 0
424
root 10.183 17.0485 23.592 7.51321 -2.07967 -2.97943
lfemur -37.6695 1.27526 -18.9571
ltibia 28.1607 0 0
lfoot -9.2136 9.43738 0
ltoes -1.309 0 0
rfemur 5.06994 2.06505 24.6528
rtibia 32.8683 0 0
rfoot 8.93808 1.67894 0
rtoes -14.4416 0 0
lowerback -6.43853 2.79583 0.176478
upperback -2.46353 3.58327 2.07568
thorax 0.952698 1.82722 2.31372
lowerneck -17.9004 -5.74062 -14.2721
upperneck 22.0671 -7.35152 13.3146
head 11.1563 -3.04014 6.19523
lclavicle 1.71011e-014 -6.13025e-015 0
lhumerus -46.832 -5.16456 91.2711
lradius 22.0401 0 0
lwrist -0.681981 0 0
lhand -10.4877 -24.3294 0
lfingers 7.12502 0 0
lthumb 15.514 5.0682 0
rclavicle 1.71011e-014 -6.13025e-015 0
rhumerus -38.3407 11.3653 -88.3172
rradius 32.7929 0 0
rwrist -14.7323 0 0
rhand -28.1006 -24.8365 0
rfingers 7.12502 0 0
rthumb -1.48301 -54.8054 0
425
root 10.2081 17.0569 23.7498 7.56194 -2.10327 -2.74411
lfemur -37.3977 1.5133 -19.4706
ltibia 28.5159 0 0
lfoot -8.87052 9.23285 0
ltoes -0.749692 0 0
rfemur 4.44519 1.87318 24.2217
rtibia 34.5117 0 0
rfoot 9.77328 1.41544 0
rtoes -14.6501 0 0
lowerback -6.35074 2.77239 0.017441
upperback -2.59992 3.57114 1.97344
thorax 0.759906 1.8223 2.28541
lowerneck -17.8297 -5.72116 -14.3159
upperneck 22.1097 -7.32763 13.3267
head 11.1567 -3.03437 6.21371
lclavicle 1.72542e-014 -5.08503e-015 0
lhumerus -46.5004 -4.95921 91.0161
lradius 21.787 0 0
lwrist -1.12778 0 0
lhand -10.494 -24.2326 0
lfingers 7.12502 0 0
lthumb 15.5079 5.16544 0
rclavicle 1.72542e-014 -5.08503e-015 0
rhumerus -38.9072 11.1801 -88.4914
rradius 32.4579 0 0
rwrist -14.5748 0 0
rhand -27.9926 -25.0263 0
rfingers 7.12502 0 0
rthumb -1.37872 -54.9962 0
426
root 10.2332 17.0654 23.9076 7.61067 -2.12687 -2.5088
lfemur -37.1259 1.75134 -19.984
ltibia 28.871 0 0
lfoot -8.52745 9.02833 0
ltoes -0.190386 0 0
rfemur 3.82044 1.6813 23.7906
rtibia 36.1552 0 0
rfoot 10.6085 1.15193 0
rtoes -14.8586 0 0
lowerback -6.26296 2.74896 -0.141596
upperback -2.73631 3.55901 1.87121
thorax 0.567113 1.81738 2.25711
lowerneck -17.7589 -5.7017 -14.3597
upperneck 22.1523 -7.30373 13.3388
head 11.1571 -3.0286 6.23219
lclavicle 1.74073e-014 -4.03981e-015 0
lhumerus -46.1688 -4.75386 90.7612
lradius 21.5338 0 0
lwrist -1.57358 0 0
lhand -10.5003 -24.1359 0
lfingers 7.12502 0 0
lthumb 15.5019 5.26269 0
rclavicle 1.74073e-014 -4.03981e-015 0
rhumerus -39.4737 10.995 -88.6657
rradius 32.1229 0 0
rwrist -14.4172 0 0
rhand -27.8846 -25.2161 0
rfingers 7.12502 0 0
rthumb -1.27444 -55.187 0
427
root 10.2583 17.0738 24.0654 7.6594 -2.15047 -2.27349
lfemur -36.8541 1.98938 -20.4974
ltibia 29.2262 0 0
lfoot -8.18437 8.8238 0
ltoes 0.368919 0 0
rfemur 3.19568 1.48943 23.3595
rtibia 37.7986 0 0
rfoot 11.4437 0.888428 0
rtoes -15.0671 0 0
lowerback -6.17517 2.72552 -0.300633
upperback -2.8727 3.54688 1.76897
thorax 0.374321 1.81246 2.2288
lowerneck -17.6882 -5.68225 -14.4035
upperneck 22.1948 -7.27984 13.3508
head 11.1575 -3.02283 6.25067
lclavicle 1.75604e-014 -2.99459e-015 0
lhumerus -45.8372 -4.54851 90.5062
lradius 21.2807 0 0
lwrist -2.01938 0 0
lhand -10.5066 -24.0391 0
lfingers 7.12502 0 0
lthumb 15.4958 5.35993 0
rclavicle 1.75604e-014 -2.99459e-015 0
rhumerus -40.0402 10.8098 -88.8399
rradius 31.788 0 0
rwrist -14.2596 0 0
rhand -27.7766 -25.406 0
rfingers 7.12502 0 0
rthumb -1.17015 -55.3778 0
428
root 10.2834 17.0823 24.2233 7.70813 -2.17407 -2.03818
lfemur -36.5823 2.22743 -21.0109
ltibia 29.5814 0 0
lfoot -7.8413 8.61927 0
ltoes 0.928224 0 0
rfemur 2.57093 1.29755 22.9283
rtibia 39.442 0 0
rfoot 12.2789 0.624925 0
rtoes -15.2756 0 0
lowerback -6.08738 2.70209 -0.45967
upperback -3.00909 3.53475 1.66674
thorax 0.181528 1.80754 2.20049
lowerneck -17.6174 -5.66279 -14.4473
upperneck 22.2374 -7.25594 13.3629
head 11.1579 -3.01706 6.26915
lclavicle 1.77135e-014 -1.94937e-015 0
lhumerus -45.5056 -4.34316 90.2512
lradius 21.0276 0 0
lwrist -2.46517 0 0
lhand -10.5128 -23.9423 0
lfingers 7.12502 0 0
lthumb 15.4897 5.45718 0
rclavicle 1.77135e-014 -1.94937e-015 0
rhumerus -40.6066 10.6247 -89.0142
rradius 31.453 0 0
rwrist -14.1021 0 0
rhand -27.6687 -25.5958 0
rfingers 7.12502 0 0
rthumb -1.06586 -55.5686 0
429
root 10.3085 17.0907 24.3811 7.75686 -2.19766 -1.80287
lfemur -36.3105 2.46547 -21.5243
ltibia 29.9365 0 0
lfoot -7.49822 8.41475 0
ltoes 1.48753 0 0
rfemur 1.94618 1.10568 22.4972
rtibia 41.0854 0 0
rfoot 13.1141 0.361421 0
rtoes -15.484 0 0
lowerback -5.9996 2.67865 -0.618707
upperback -3.14548 3.52262 1.56451
thorax -0.0112645 1.80262 2.17218
lowerneck -17.5467 -5.64333 -14.4911
upperneck 22.28 -7.23205 13.375
head 11.1583 -3.01129 6.28763
lclavicle 1.78666e-014 -9.04144e-016 0
lhumerus -45.1741 -4.13781 89.9963
lradius 20.7744 0 0
lwrist -2.91097 0 0
lhand -10.5191 -23.8455 0
lfingers 7.12502 0 0
lthumb 15.4837 5.55442 0
rclavicle 1.78666e-014 -9.04144e-016 0
rhumerus -41.1731 10.4395 -89.1885
rradius 31.118 0 0
rwrist -13.9445 0 0
rhand -27.5607 -25.7856 0
rfingers 7.12502 0 0
rthumb -0.961578 -55.7594 0
430
root 10.3336 17.0991 24.5389 7.8056 -2.22126 -1.56755
lfemur -36.0387 2.70351 -22.0377
ltibia 30.2917 0 0
lfoot -7.15515 8.21022 0
ltoes 2.04683 0 0
rfemur 1.32142 0.913803 22.0661
rtibia 42.7288 0 0
rfoot 13.9493 0.0979177 0
rtoes -15.6925 0 0
lowerback -5.91181 2.65522 -0.777745
upperback -3.28187 3.51049 1.46227
thorax -0.204057 1.79771 2.14387
lowerneck -17.4759 -5.62388 -14.5349
upperneck 22.3225 -7.20815 13.387
head 11.1587 -3.00551 6.30611
lclavicle 1.80197e-014 1.41079e-016 0
lhumerus -44.8425 -3.93246 89.7413
lradius 20.5213 0 0
lwrist -3.35677 0 0
lhand -10.5254 -23.7488 0
lfingers 7.12502 0 0
lthumb 15.4776 5.65167 0
rclavicle 1.80197e-014 1.41079e-016 0
rhumerus -41.7396 10.2544 -89.3627
rradius 30.7831 0 0
rwrist -13.7869 0 0
rhand -27.4527 -25.9755 0
rfingers 7.12502 0 0
rthumb -0.857291 -55.9502 0
